# Blender v2.66 (sub 1) OBJ File: 'compact_shroud.blend'
# www.blender.org
mtllib compact_shroud.mtl
v 0.003852 -0.004041 -0.004041
v 0.003852 -0.004041 1.004041
v -1.003852 -0.004041 1.004041
v -1.003852 -0.004041 -0.004041
v 0.003852 1.004041 -0.004041
v 0.003852 1.004041 1.004041
v -1.003852 1.004041 1.004041
v -1.003852 1.004041 -0.004041
vt 0.000000 1.000000
vt 1.000000 1.000000
vt 1.000000 0.000000
vt 0.000000 0.000000
vn 1.000000 -0.000000 0.000000
vn 0.000000 -0.000000 1.000000
vn -1.000000 0.000000 0.000000
vn 0.000000 0.000000 -1.000000
vn 0.000000 -1.000000 0.000000
vn 0.000000 1.000000 0.000000
usemtl None
s off
f 5/1/1 6/2/1 2/3/1 1/4/1
f 6/1/2 7/2/2 3/3/2 2/4/2
f 7/2/3 8/1/3 4/4/3 3/3/3
f 8/2/4 5/1/4 1/4/4 4/3/4
f 1/4/5 2/1/5 3/2/5 4/3/5
f 8/3/6 7/2/6 6/1/6 5/4/6
