# Blender v2.66 (sub 1) OBJ File: 'book.blend'
# www.blender.org
mtllib book.mtl
v 0.187500 0.125000 -0.312500
v -0.187500 0.125000 -0.312500
v -0.187500 0.125000 0.312500
v 0.187500 0.125000 0.312500
v 0.187500 0.000000 -0.312500
v -0.187500 0.000000 -0.312500
v -0.187500 0.000000 0.312500
v 0.187500 0.000000 0.312500
v 0.187500 0.000000 0.312500
v -0.187500 0.000000 0.312500
v -0.187500 0.000000 -0.312500
v 0.187500 0.000000 -0.312500
v 0.187500 0.125000 0.312500
v -0.187500 0.125000 0.312500
v -0.187500 0.125000 -0.312500
v 0.187500 0.125000 -0.312500
v 0.187500 0.000000 0.250000
v -0.125000 0.000000 0.250000
v -0.125000 0.000000 -0.250000
v 0.187500 0.000000 -0.250000
v 0.187500 0.125000 0.250000
v -0.125000 0.125000 0.250000
v -0.125000 0.125000 -0.250000
v 0.187500 0.125000 -0.250000
v 0.187500 0.000000 0.312500
v 0.187500 0.000000 -0.312500
v 0.187500 0.125000 0.312500
v 0.187500 0.125000 -0.312500
v 0.062500 0.125000 0.062500
v -0.062500 0.125000 0.062500
v -0.062500 0.125000 -0.062500
v 0.062500 0.312500 0.062500
v -0.062500 0.312500 0.062500
v -0.062500 0.312500 -0.062500
v 0.062500 0.312500 -0.062500
v 0.062500 0.125000 0.062500
v 0.000000 0.125000 0.000000
v -0.062500 0.125000 -0.062500
v 0.062500 0.312500 0.062500
v 0.062500 0.312500 -0.062500
v 0.062500 0.312500 -0.062500
v -0.062500 0.312500 -0.062500
v -0.062500 0.218750 -0.062500
v 0.000000 0.218750 0.000000
v 0.062500 0.125000 0.000000
v 0.000000 0.125000 -0.062500
v 0.062500 0.312500 0.000000
v 0.000000 0.312500 -0.062500
v 0.062500 0.218750 0.062500
v 0.000000 0.218750 -0.062500
v 0.062500 0.218750 0.000000
v 0.062500 0.218750 -0.062500
vt 0.187500 0.687500
vt 0.375000 0.687500
vt 0.375000 1.000000
vt 0.187500 1.000000
vt 0.875000 1.000000
vt 0.875000 0.687500
vt 0.687500 0.687500
vt 0.687500 1.000000
vt 0.500000 1.000000
vt 0.500000 0.687500
vt 0.437500 0.687500
vt 0.437500 1.000000
vt 0.000000 0.687500
vt 0.000000 1.000000
vt 0.000000 0.406250
vt 0.000000 0.343750
vt 0.156250 0.343750
vt 0.156250 0.406250
vt 0.000000 0.281250
vt 0.250000 0.281250
vt 0.250000 0.343750
vt 0.312500 0.343750
vt 0.312500 0.406250
vt 0.187500 0.562500
vt 0.156250 0.562500
vt 0.156250 0.593750
vt 0.187500 0.593750
vt 0.125000 0.625000
vt 0.125000 0.562500
vt 0.062500 0.562500
vt 0.062500 0.625000
vt 0.031250 0.500000
vt 0.000000 0.500000
vt 0.000000 0.468750
vt 0.031250 0.468750
vt 0.187500 0.468750
vt 0.250000 0.468750
vt 0.250000 0.531250
vt 0.187500 0.531250
vt 0.312500 0.500000
vt 0.312500 0.531250
vt 0.281250 0.531250
vt 0.281250 0.500000
vt 0.125000 0.531250
vt 0.125000 0.468750
vt 0.218750 0.656250
vt 0.187500 0.656250
vt 0.187500 0.625000
vt 0.218750 0.625000
vt 0.031250 0.531250
vt 0.000000 0.531250
vt 0.062500 0.500000
vt 0.093750 0.500000
vt 0.093750 0.468750
vt 0.062500 0.468750
vt 0.062500 0.531250
vt 0.093750 0.531250
vt 0.250000 0.656250
vt 0.281250 0.656250
vt 0.281250 0.625000
vt 0.250000 0.625000
vt 0.343750 0.531250
vt 0.375000 0.531250
vt 0.375000 0.562500
vt 0.343750 0.562500
vn 0.000000 -1.000000 0.000000
vn -0.000000 1.000000 0.000000
vn -1.000000 0.000000 0.000000
vn 1.000000 0.000000 -0.000000
vn -0.000000 0.000000 1.000000
vn -0.000000 0.000000 -1.000000
usemtl Material
s off
f 9/1/1 10/2/1 11/3/1 12/4/1
f 13/5/2 16/6/2 15/7/2 14/8/2
f 27/9/3 28/10/3 26/11/3 25/12/3
f 13/2/4 9/11/4 12/12/4 16/3/4
f 8/10/2 5/9/2 6/8/2 7/7/2
f 4/1/1 3/13/1 2/14/1 1/4/1
f 17/15/5 21/16/5 22/17/5 18/18/5
f 18/16/3 22/19/3 23/20/3 19/21/3
f 19/22/6 23/23/6 24/18/6 20/17/6
f 44/24/1 50/25/1 52/26/1 51/27/1
f 32/28/2 35/29/2 34/30/2 33/31/2
f 50/32/6 43/33/6 42/34/6 48/35/6
f 30/36/5 29/37/5 32/38/5 33/39/5
f 51/40/4 52/41/4 41/42/4 47/43/4
f 31/39/3 30/44/3 33/45/3 34/36/3
f 37/46/4 46/47/4 50/48/4 44/49/4
f 46/50/6 38/51/6 43/33/6 50/32/6
f 49/52/4 51/53/4 47/54/4 39/55/4
f 36/56/4 45/57/4 51/53/4 49/52/4
f 45/58/6 37/59/6 44/60/6 51/61/6
f 50/62/6 48/63/6 40/64/6 52/65/6
