# Blender v2.66 (sub 1) OBJ File: 'shaft_overlay.blend'
# www.blender.org
mtllib shaft_overlay_sheared.mtl
v 0.562500 -0.062500 0.437500
v 0.562500 -0.062500 0.562500
v 0.437500 -0.062500 0.562500
v 0.437500 -0.062500 0.437500
v 0.562500 1.062500 0.437500
v 0.562500 1.062500 0.562500
v 0.437500 1.062500 0.562500
v 0.437500 1.062500 0.437500
v 0.437500 0.687500 0.437500
v 0.562500 0.687500 0.437500
v 0.562500 0.687500 0.562500
v 0.437500 0.687500 0.562500
v 0.437500 0.688214 0.437500
v 0.562500 0.688214 0.437500
v 0.562500 0.688214 0.562500
v 0.437500 0.688214 0.562500
vt 0.750000 0.750000
vt 0.875000 0.750000
vt 0.875000 0.875000
vt 0.750000 0.875000
vt 0.437500 0.625000
vt 0.437500 1.000000
vt 0.562500 1.000000
vt 0.562500 0.625000
vt 0.437500 0.750000
vt 0.437500 0.000000
vt 0.562500 0.000000
vt 0.562500 0.750000
vn 0.000000 -1.000000 0.000000
vn 0.000000 1.000000 0.000000
vn -0.000000 0.000000 -1.000000
vn 1.000000 0.000000 0.000000
vn -1.000000 0.000000 0.000000
vn -0.000000 0.000000 1.000000
usemtl None
s off
f 1/1/1 2/2/1 3/3/1 4/4/1
f 8/1/2 7/2/2 6/3/2 5/4/2
f 9/5/3 8/6/3 5/7/3 10/8/3
f 10/8/4 5/7/4 6/6/4 11/5/4
f 12/8/5 7/7/5 8/6/5 9/5/5
f 11/5/6 6/6/6 7/7/6 12/8/6
f 4/9/3 13/10/3 14/11/3 1/12/3
f 1/12/4 14/11/4 15/10/4 2/9/4
f 3/11/5 16/12/5 13/9/5 4/10/5
f 2/10/6 15/9/6 16/12/6 3/11/6
