# Blender v2.66 (sub 1) OBJ File: 'diamond cutting head.blend'
# www.blender.org
mtllib diamond_cutting_head.mtl
v -0.149114 0.610306 0.491569
v -0.296364 0.825748 0.268809
v -0.177801 0.915784 0.364399
v -0.171659 0.601282 0.568762
v -0.351030 1.127661 0.215967
v -0.125589 0.619931 0.413912
v -0.230854 0.600551 0.520880
v -0.343181 0.896297 0.424153
v -0.290220 0.600842 0.473958
v -0.207501 0.610650 0.444183
v -0.508431 0.610306 0.149114
v -0.731191 0.825748 0.296364
v -0.635602 0.915784 0.177802
v -0.431238 0.601282 0.171659
v -0.784033 1.127661 0.351031
v -0.586088 0.619931 0.125590
v -0.479120 0.600551 0.230854
v -0.575847 0.896297 0.343182
v -0.526042 0.600842 0.290220
v -0.555817 0.610650 0.207501
v -0.850886 0.610306 0.508431
v -0.703635 0.825748 0.731191
v -0.822198 0.915784 0.635602
v -0.828341 0.601282 0.431239
v -0.648969 1.127661 0.784033
v -0.874410 0.619931 0.586089
v -0.769145 0.600551 0.479121
v -0.656818 0.896297 0.575847
v -0.709779 0.600842 0.526042
v -0.792499 0.610650 0.555818
v -0.491568 0.610306 0.850886
v -0.268809 0.825748 0.703635
v -0.364398 0.915784 0.822198
v -0.568761 0.601282 0.828341
v -0.215967 1.127661 0.648969
v -0.413911 0.619931 0.874410
v -0.520879 0.600551 0.769145
v -0.424153 0.896297 0.656818
v -0.473957 0.600842 0.709779
v -0.444182 0.610650 0.792499
v -0.251817 0.610306 0.256396
v -0.513454 0.825748 0.203003
v -0.362026 0.915784 0.186758
v -0.213176 0.601282 0.326921
v -0.589474 1.127661 0.204293
v -0.290095 0.619931 0.184850
v -0.288891 0.600551 0.334921
v -0.436714 0.896297 0.345952
v -0.364048 0.600842 0.343720
v -0.326611 0.610650 0.264175
v -0.748046 0.610306 0.268319
v -0.801439 0.825748 0.529956
v -0.817683 0.915784 0.378528
v -0.677520 0.601282 0.229678
v -0.800148 1.127661 0.605976
v -0.819592 0.619931 0.306597
v -0.669520 0.600551 0.305393
v -0.658489 0.896297 0.453216
v -0.660721 0.600842 0.380550
v -0.740267 0.610650 0.343113
v -0.736122 0.610306 0.764548
v -0.474485 0.825748 0.817940
v -0.625913 0.915784 0.834185
v -0.774763 0.601282 0.694022
v -0.398465 1.127661 0.816650
v -0.697844 0.619931 0.836094
v -0.699048 0.600551 0.686022
v -0.551225 0.896297 0.674991
v -0.623891 0.600842 0.677223
v -0.661328 0.610650 0.756768
v -0.239894 0.610306 0.752624
v -0.186501 0.825748 0.490986
v -0.170256 0.915784 0.642415
v -0.310419 0.601282 0.791265
v -0.187791 1.127661 0.414967
v -0.168348 0.619931 0.714345
v -0.318419 0.600551 0.715550
v -0.329450 0.896297 0.567727
v -0.327218 0.600842 0.640393
v -0.247673 0.610650 0.677830
vt 1.000000 1.000000
vt 0.562500 1.000000
vt 0.562500 0.625000
vt 1.000000 0.625000
vt 0.500000 0.500000
vt 0.000000 0.750000
vt 0.000000 1.000000
vt 0.250000 1.000000
vn 0.929172 0.213022 0.302094
vn 0.635972 -0.018393 -0.771493
vn -0.186264 -0.665928 -0.722389
vn -0.958806 -0.206301 -0.195273
vn -0.624452 0.018212 0.780851
vn 0.210973 0.592807 0.777219
vn 0.302094 0.213022 -0.929172
vn -0.771493 -0.018393 -0.635972
vn -0.722389 -0.665928 0.186265
vn -0.195272 -0.206301 0.958806
vn 0.780851 0.018212 0.624451
vn 0.777219 0.592807 -0.210974
vn -0.929172 0.213022 -0.302093
vn -0.635971 -0.018393 0.771493
vn 0.186265 -0.665928 0.722389
vn 0.958806 -0.206301 0.195271
vn 0.624451 0.018212 -0.780852
vn -0.210974 0.592807 -0.777219
vn -0.302092 0.213022 0.929173
vn 0.771494 -0.018393 0.635971
vn 0.722389 -0.665928 -0.186265
vn 0.195271 -0.206301 -0.958806
vn -0.780852 0.018212 -0.624451
vn -0.777219 0.592807 0.210975
vn 0.870637 0.213022 -0.443411
vn -0.095828 -0.018393 -0.995228
vn -0.642515 -0.665928 -0.379097
vn -0.816056 -0.206301 0.539900
vn 0.110591 0.018212 0.993699
vn 0.698758 0.592807 0.400396
vn -0.443412 0.213022 -0.870636
vn -0.995228 -0.018393 0.095828
vn -0.379097 -0.665928 0.642515
vn 0.539900 -0.206301 0.816056
vn 0.993699 0.018212 -0.110591
vn 0.400396 0.592807 -0.698758
vn -0.870636 0.213022 0.443412
vn 0.095829 -0.018393 0.995228
vn 0.642515 -0.665928 0.379097
vn 0.816056 -0.206301 -0.539901
vn -0.110592 0.018212 -0.993699
vn -0.698758 0.592807 -0.400395
vn 0.443413 0.213022 0.870636
vn 0.995228 -0.018393 -0.095829
vn 0.379096 -0.665928 -0.642515
vn -0.539901 -0.206301 -0.816055
vn -0.993699 0.018212 0.110593
vn -0.400395 0.592807 0.698759
usemtl None
s off
f 3/1/1 4/2/1 1/3/1 6/4/1
f 6/5/2 2/6/2 5/7/2 3/8/2
f 2/1/3 6/2/3 10/3/3 9/4/3
f 9/5/4 8/6/4 5/7/4 2/8/4
f 8/1/5 9/2/5 7/3/5 4/4/5
f 4/5/6 3/6/6 5/7/6 8/8/6
f 13/1/7 14/2/7 11/3/7 16/4/7
f 16/5/8 12/6/8 15/7/8 13/8/8
f 12/1/9 16/2/9 20/3/9 19/4/9
f 19/5/10 18/6/10 15/7/10 12/8/10
f 18/1/11 19/2/11 17/3/11 14/4/11
f 14/5/12 13/6/12 15/7/12 18/8/12
f 23/1/13 24/2/13 21/3/13 26/4/13
f 26/5/14 22/6/14 25/7/14 23/8/14
f 22/1/15 26/2/15 30/3/15 29/4/15
f 29/5/16 28/6/16 25/7/16 22/8/16
f 28/1/17 29/2/17 27/3/17 24/4/17
f 24/5/18 23/6/18 25/7/18 28/8/18
f 33/1/19 34/2/19 31/3/19 36/4/19
f 36/5/20 32/6/20 35/7/20 33/8/20
f 32/1/21 36/2/21 40/3/21 39/4/21
f 39/5/22 38/6/22 35/7/22 32/8/22
f 38/1/23 39/2/23 37/3/23 34/4/23
f 34/5/24 33/6/24 35/7/24 38/8/24
f 43/1/25 44/2/25 41/3/25 46/4/25
f 46/5/26 42/6/26 45/7/26 43/8/26
f 42/1/27 46/2/27 50/3/27 49/4/27
f 49/5/28 48/6/28 45/7/28 42/8/28
f 48/1/29 49/2/29 47/3/29 44/4/29
f 44/5/30 43/6/30 45/7/30 48/8/30
f 53/1/31 54/2/31 51/3/31 56/4/31
f 56/5/32 52/6/32 55/7/32 53/8/32
f 52/1/33 56/2/33 60/3/33 59/4/33
f 59/5/34 58/6/34 55/7/34 52/8/34
f 58/1/35 59/2/35 57/3/35 54/4/35
f 54/5/36 53/6/36 55/7/36 58/8/36
f 63/1/37 64/2/37 61/3/37 66/4/37
f 66/5/38 62/6/38 65/7/38 63/8/38
f 62/1/39 66/2/39 70/3/39 69/4/39
f 69/5/40 68/6/40 65/7/40 62/8/40
f 68/1/41 69/2/41 67/3/41 64/4/41
f 64/5/42 63/6/42 65/7/42 68/8/42
f 73/1/43 74/2/43 71/3/43 76/4/43
f 76/5/44 72/6/44 75/7/44 73/8/44
f 72/1/45 76/2/45 80/3/45 79/4/45
f 79/5/46 78/6/46 75/7/46 72/8/46
f 78/1/47 79/2/47 77/3/47 74/4/47
f 74/5/48 73/6/48 75/7/48 78/8/48
v -0.062500 0.562500 0.062500
v -0.062500 0.562500 0.937500
v -0.937500 0.562500 0.937500
v -0.937500 0.562500 0.062500
v -0.062500 0.625000 0.062500
v -0.062500 0.625000 0.937500
v -0.937500 0.625000 0.937500
v -0.937500 0.625000 0.062500
vt 0.500000 0.062500
vt 0.500000 0.937500
vt 0.437500 0.937500
vt 0.437500 0.062500
vt 0.062500 0.062500
vt 0.062500 0.937500
vt 0.937500 0.937500
vt 0.937500 0.062500
vn 1.000000 -0.000000 0.000000
vn 0.000000 -0.000000 1.000000
vn -1.000000 0.000000 0.000000
vn 0.000000 0.000000 -1.000000
vn 0.000000 -1.000000 0.000000
vn 0.000000 1.000000 0.000000
usemtl None_door_iron_lower
s off
f 85/9/49 86/10/49 82/11/49 81/12/49
f 86/9/50 87/10/50 83/11/50 82/12/50
f 87/11/51 88/12/51 84/9/51 83/10/51
f 88/9/52 85/10/52 81/11/52 84/12/52
f 81/13/53 82/14/53 83/15/53 84/16/53
f 88/13/54 87/14/54 86/15/54 85/16/54
