# Blender v2.66 (sub 1) OBJ File: 'minipiston.blend'
# www.blender.org
mtllib piston_head.mtl
v -0.093750 0.312500 -0.093750
v 0.093750 0.312500 -0.093750
v -0.093750 0.312500 0.093750
v 0.093750 0.312500 0.093750
v -0.093750 0.250000 -0.093750
v 0.093750 0.250000 -0.093750
v -0.093750 0.250000 0.093750
v 0.093750 0.250000 0.093750
v -0.031250 0.250000 -0.031250
v 0.031250 0.250000 -0.031250
v -0.031250 0.250000 0.031250
v 0.031250 0.250000 0.031250
v -0.031250 0.125000 -0.031250
v 0.031250 0.125000 -0.031250
v -0.031250 0.125000 0.031250
v 0.031250 0.125000 0.031250
vt 0.125000 0.687500
vt 0.125000 0.875000
vt 0.312500 0.875000
vt 0.312500 0.687500
vt 0.687500 0.125000
vt 0.687500 0.187500
vt 0.500000 0.187500
vt 0.500000 0.125000
vt 0.625000 0.875000
vt 0.625000 0.750000
vt 0.562500 0.750000
vt 0.562500 0.875000
vt 0.500000 0.875000
vt 0.500000 0.750000
vn 0.000000 1.000000 0.000000
vn 0.000000 -1.000000 0.000000
vn -1.000000 0.000000 -0.000000
vn 1.000000 0.000000 -0.000000
vn 0.000000 0.000000 -1.000000
vn 0.000000 0.000000 1.000000
usemtl PistonTexture
s off
f 2/1/1 1/2/1 3/3/1 4/4/1
f 6/3/2 8/4/2 7/1/2 5/2/2
f 1/5/3 5/6/3 7/7/3 3/8/3
f 4/5/4 8/6/4 6/7/4 2/8/4
f 2/8/5 6/7/5 5/6/5 1/5/5
f 3/8/6 7/7/6 8/6/6 4/5/6
f 9/9/3 13/10/3 15/11/3 11/12/3
f 12/12/4 16/11/4 14/10/4 10/9/4
f 10/13/5 14/14/5 13/11/5 9/12/5
f 11/12/6 15/11/6 16/14/6 12/13/6
