# Blender v2.66 (sub 1) OBJ File: 'anthrogen.blend'
# www.blender.org
mtllib anthrogen_lit.mtl
v -0.750000 0.062500 0.250000
v -0.750000 0.062500 0.750000
v -0.250000 0.062500 0.750000
v -0.250000 0.062500 0.250000
v -1.000000 0.000000 0.000000
v 0.000000 0.000000 0.000000
v 0.000000 0.000000 1.000000
v -1.000000 0.000000 1.000000
v -0.750000 0.562500 0.250000
v -0.750000 0.562500 0.750000
v -0.250000 0.562500 0.750000
v -0.250000 0.562500 0.250000
v -1.000000 0.062500 1.000000
v 0.000000 0.062500 1.000000
v 0.000000 0.062500 0.000000
v -1.000000 0.062500 0.000000
vt 0.000000 0.000000
vt 0.000000 0.500000
vt 0.500000 0.500000
vt 0.500000 0.000000
vt 0.500000 1.000000
vt 1.000000 1.000000
vt 1.000000 0.500000
vt 1.000000 0.000000
vt 0.968750 0.000000
vt 0.968750 0.500000
vt 1.000000 0.468750
vt 0.500000 0.468750
vt 0.500000 0.031250
vt 1.000000 0.031250
vt 0.531250 0.500000
vt 0.531250 0.000000
vn 0.000000 0.000000 1.000000
vn -1.000000 -0.000000 0.000000
vn 1.000000 0.000000 0.000000
vn 0.000000 1.000000 0.000000
vn 0.000000 -0.000000 -1.000000
vn 0.000000 -1.000000 0.000000
usemtl None
s off
f 2/1/1 3/2/1 11/3/1 10/4/1
f 1/1/2 2/2/2 10/3/2 9/4/2
f 3/1/3 4/2/3 12/3/3 11/4/3
f 12/1/4 9/2/4 10/3/4 11/4/4
f 4/1/5 1/2/5 9/3/5 12/4/5
f 6/3/6 7/5/6 8/6/6 5/7/6
f 15/4/4 16/8/4 13/7/4 14/3/4
f 16/9/2 5/8/2 8/7/2 13/10/2
f 13/11/1 8/7/1 7/3/1 14/12/1
f 15/4/5 6/13/5 5/14/5 16/8/5
f 14/3/3 7/15/3 6/16/3 15/4/3
