# Blender v2.66 (sub 1) OBJ File: 'whirligig.blend'
# www.blender.org
mtllib whirligig_joined.mtl
v 0.600000 0.000000 0.400000
v 0.600000 0.000000 0.600000
v 0.400000 0.000000 0.600000
v 0.400000 0.000000 0.400000
v 0.600000 1.000000 0.400000
v 0.600000 1.000000 0.600000
v 0.400000 1.000000 0.600000
v 0.400000 1.000000 0.400000
vt 0.437500 0.000000
vt 0.562500 0.000000
vt 0.562500 1.000000
vt 0.437500 1.000000
vt 0.437500 0.437500
vt 0.562500 0.437500
vt 0.562500 0.562500
vt 0.437500 0.562500
vn 1.000000 -0.000000 0.000000
vn 0.000000 -0.000000 1.000000
vn -1.000000 0.000000 0.000000
vn 0.000000 0.000000 -1.000000
vn 0.000000 -1.000000 0.000000
vn 0.000000 1.000000 0.000000
usemtl None
s off
f 5/1/1 6/2/1 2/3/1 1/4/1
f 6/1/2 7/2/2 3/3/2 2/4/2
f 7/1/3 8/2/3 4/3/3 3/4/3
f 8/1/4 5/2/4 1/3/4 4/4/4
f 1/5/5 2/6/5 3/7/5 4/8/5
f 8/5/6 7/6/6 6/7/6 5/8/6
v 0.125000 0.187500 0.875000
v 0.125000 0.187500 0.125000
v 0.875000 0.187500 0.125000
v 0.875000 0.187500 0.875000
v 0.125000 0.812500 0.875000
v 0.125000 0.812500 0.125000
v 0.875000 0.812500 0.125000
v 0.875000 0.812500 0.875000
v 0.250000 0.062500 0.750000
v 0.250000 0.062500 0.250000
v 0.750000 0.062500 0.250000
v 0.750000 0.062500 0.750000
v 0.250000 0.937500 0.750000
v 0.250000 0.937500 0.250000
v 0.750000 0.937500 0.250000
v 0.750000 0.937500 0.750000
vt 0.000000 0.687500
vt 0.000000 0.312500
vt 0.062500 0.375000
vt 0.062500 0.625000
vt 0.375000 0.687500
vt 0.312500 0.625000
vt 0.375000 1.000000
vt 0.000000 1.000000
vt 0.312500 0.375000
vt 0.375000 0.312500
vn -0.707107 0.707107 -0.000000
vn 0.707107 -0.707107 0.000000
vn -0.000000 -0.707107 0.707107
vn 0.707107 0.707107 0.000000
vn -0.707107 -0.707107 0.000000
vn 0.000000 0.707107 -0.707107
vn 0.000000 -0.707107 -0.707107
vn -0.000000 0.707106 0.707107
usemtl Material
s off
f 14/9/7 13/10/7 21/11/7 22/12/7
f 11/13/8 12/9/8 20/12/8 19/14/8
f 9/13/3 13/15/3 14/16/3 10/9/3
f 10/13/4 14/15/4 15/16/4 11/9/4
f 11/13/1 15/15/1 16/16/1 12/9/1
f 13/16/2 9/9/2 12/13/2 16/15/2
f 17/11/5 18/17/5 19/14/5 20/12/5
f 21/11/6 24/17/6 23/14/6 22/12/6
f 12/9/9 9/10/9 17/11/9 20/12/9
f 16/18/10 15/13/10 23/14/10 24/17/10
f 9/18/11 10/10/11 18/11/11 17/17/11
f 15/9/12 14/13/12 22/14/12 23/12/12
f 10/13/13 11/18/13 19/17/13 18/14/13
f 13/10/14 16/18/14 24/17/14 21/11/14
v 0.562500 0.250000 0.125000
v 0.812500 0.250000 0.125000
v 0.562500 0.375000 0.125000
v 0.812500 0.375000 0.125000
v 0.687500 0.250000 0.000000
v 0.812500 0.250000 0.000000
v 0.687500 0.375000 -0.000000
v 0.812500 0.375000 0.000000
v 0.375000 0.437500 0.125000
v 0.625000 0.437500 0.125000
v 0.375000 0.562500 0.125000
v 0.625000 0.562500 0.125000
v 0.500000 0.437500 0.000000
v 0.625000 0.437500 0.000000
v 0.500000 0.562500 -0.000000
v 0.625000 0.562500 0.000000
v 0.187500 0.625000 0.125000
v 0.437500 0.625000 0.125000
v 0.187500 0.750000 0.125000
v 0.437500 0.750000 0.125000
v 0.312500 0.625000 0.000000
v 0.437500 0.625000 0.000000
v 0.312500 0.750000 -0.000000
v 0.437500 0.750000 0.000000
v 0.125000 0.250000 0.437500
v 0.125000 0.250000 0.187500
v 0.125000 0.375000 0.437500
v 0.125000 0.375000 0.187500
v 0.000000 0.250000 0.312500
v 0.000000 0.250000 0.187500
v -0.000000 0.375000 0.312500
v 0.000000 0.375000 0.187500
v 0.125000 0.437500 0.625000
v 0.125000 0.437500 0.375000
v 0.125000 0.562500 0.625000
v 0.125000 0.562500 0.375000
v 0.000000 0.437500 0.500000
v 0.000000 0.437500 0.375000
v -0.000000 0.562500 0.500000
v 0.000000 0.562500 0.375000
v 0.125000 0.625000 0.812500
v 0.125000 0.625000 0.562500
v 0.125000 0.750000 0.812500
v 0.125000 0.750000 0.562500
v 0.000000 0.625000 0.687500
v 0.000000 0.625000 0.562500
v -0.000000 0.750000 0.687500
v 0.000000 0.750000 0.562500
v 0.437500 0.250000 0.875000
v 0.187500 0.250000 0.875000
v 0.437500 0.375000 0.875000
v 0.187500 0.375000 0.875000
v 0.312500 0.250000 1.000000
v 0.187500 0.250000 1.000000
v 0.312500 0.375000 1.000000
v 0.187500 0.375000 1.000000
v 0.625000 0.437500 0.875000
v 0.375000 0.437500 0.875000
v 0.625000 0.562500 0.875000
v 0.375000 0.562500 0.875000
v 0.500000 0.437500 1.000000
v 0.375000 0.437500 1.000000
v 0.500000 0.562500 1.000000
v 0.375000 0.562500 1.000000
v 0.812500 0.625000 0.875000
v 0.562500 0.625000 0.875000
v 0.812500 0.750000 0.875000
v 0.562500 0.750000 0.875000
v 0.687500 0.625000 1.000000
v 0.562500 0.625000 1.000000
v 0.687500 0.750000 1.000000
v 0.562500 0.750000 1.000000
v 0.875000 0.250000 0.562500
v 0.875000 0.250000 0.812500
v 0.875000 0.375000 0.562500
v 0.875000 0.375000 0.812500
v 1.000000 0.250000 0.687500
v 1.000000 0.250000 0.812500
v 1.000000 0.375000 0.687500
v 1.000000 0.375000 0.812500
v 0.875000 0.437500 0.375000
v 0.875000 0.437500 0.625000
v 0.875000 0.562500 0.375000
v 0.875000 0.562500 0.625000
v 1.000000 0.437500 0.500000
v 1.000000 0.437500 0.625000
v 1.000000 0.562500 0.500000
v 1.000000 0.562500 0.625000
v 0.875000 0.625000 0.187500
v 0.875000 0.625000 0.437500
v 0.875000 0.750000 0.187500
v 0.875000 0.750000 0.437500
v 1.000000 0.625000 0.312500
v 1.000000 0.625000 0.437500
v 1.000000 0.750000 0.312500
v 1.000000 0.750000 0.437500
vt 0.468750 0.718750
vt 0.468750 0.656250
vt 0.531250 0.656250
vt 0.531250 0.718750
vt 0.375000 1.000000
vt 0.375000 0.750000
vt 0.625000 0.750000
vt 0.625000 1.000000
vt 0.406250 0.531250
vt 0.531250 0.531250
vt 0.531250 0.593750
vt 0.468750 0.593750
vt 0.531250 0.406250
vt 0.406250 0.406250
vt 0.468750 0.468750
vt 0.531250 0.468750
vt 0.406250 0.718750
vt 0.406250 0.656250
vn -0.707107 -0.000000 -0.707107
vn -1.000000 -0.000000 -0.000001
vn -0.707107 0.000000 0.707107
vn -0.000001 -0.000000 1.000000
vn 0.707107 0.000000 0.707107
vn 0.707106 0.000000 0.707107
vn 1.000000 -0.000000 0.000001
vn 0.707107 0.000000 -0.707106
vn 0.707107 0.000000 -0.707107
usemtl Material
s off
f 29/19/4 31/20/4 32/21/4 30/22/4
f 28/23/1 26/24/1 30/25/1 32/26/1
f 27/27/6 28/28/6 32/29/6 31/30/6
f 26/31/5 25/32/5 29/33/5 30/34/5
f 25/35/15 27/36/15 31/20/15 29/19/15
f 37/19/4 39/20/4 40/21/4 38/22/4
f 36/23/1 34/24/1 38/25/1 40/26/1
f 35/27/6 36/28/6 40/29/6 39/30/6
f 34/31/5 33/32/5 37/33/5 38/34/5
f 33/35/15 35/36/15 39/20/15 37/19/15
f 45/19/4 47/20/4 48/21/4 46/22/4
f 44/23/1 42/24/1 46/25/1 48/26/1
f 43/27/6 44/28/6 48/29/6 47/30/6
f 42/31/5 41/32/5 45/33/5 46/34/5
f 41/35/15 43/36/15 47/20/15 45/19/15
f 53/19/16 55/20/16 56/21/16 54/22/16
f 52/23/4 50/24/4 54/25/4 56/26/4
f 51/27/6 52/28/6 56/29/6 55/30/6
f 50/31/5 49/32/5 53/33/5 54/34/5
f 49/35/17 51/36/17 55/20/17 53/19/17
f 61/19/3 63/20/3 64/21/3 62/22/3
f 60/23/4 58/24/4 62/25/4 64/26/4
f 59/27/6 60/28/6 64/29/6 63/30/6
f 58/31/5 57/32/5 61/33/5 62/34/5
f 57/35/17 59/36/17 63/20/17 61/19/17
f 69/19/3 71/20/3 72/21/3 70/22/3
f 68/23/4 66/24/4 70/25/4 72/26/4
f 67/27/6 68/28/6 72/29/6 71/30/6
f 66/31/5 65/32/5 69/33/5 70/34/5
f 65/35/17 67/36/17 71/20/17 69/19/17
f 77/19/18 79/20/18 80/21/18 78/22/18
f 76/23/3 74/24/3 78/25/3 80/26/3
f 75/27/6 76/28/6 80/29/6 79/30/6
f 74/31/5 73/32/5 77/33/5 78/34/5
f 73/35/19 75/36/19 79/20/19 77/19/19
f 85/19/2 87/20/2 88/21/2 86/22/2
f 84/23/3 82/24/3 86/25/3 88/26/3
f 83/27/6 84/28/6 88/29/6 87/30/6
f 82/31/5 81/32/5 85/33/5 86/34/5
f 81/35/19 83/36/19 87/20/19 85/19/19
f 93/19/2 95/20/2 96/21/2 94/22/2
f 92/23/3 90/24/3 94/25/3 96/26/3
f 91/27/6 92/28/6 96/29/6 95/30/6
f 90/31/5 89/32/5 93/33/5 94/34/5
f 89/35/20 91/36/20 95/20/20 93/19/20
f 101/19/21 103/20/21 104/21/21 102/22/21
f 100/23/2 98/24/2 102/25/2 104/26/2
f 99/27/6 100/28/6 104/29/6 103/30/6
f 98/31/5 97/32/5 101/33/5 102/34/5
f 97/35/22 99/36/22 103/20/22 101/19/22
f 109/19/1 111/20/1 112/21/1 110/22/1
f 108/23/2 106/24/2 110/25/2 112/26/2
f 107/27/6 108/28/6 112/29/6 111/30/6
f 106/31/5 105/32/5 109/33/5 110/34/5
f 105/35/23 107/36/23 111/20/23 109/19/23
f 117/19/1 119/20/1 120/21/1 118/22/1
f 116/23/2 114/24/2 118/25/2 120/26/2
f 115/27/6 116/28/6 120/29/6 119/30/6
f 114/31/5 113/32/5 117/33/5 118/34/5
f 113/35/22 115/36/22 119/20/22 117/19/22
